<svg id="Layer_1" data-name="Layer 1" xmlns="http://www.w3.org/2000/svg" viewBox="0 0 435.62 235.82"><defs><style>.cls-1,.cls-3{fill:#f68c1e;}.cls-2{fill:#fff;}.cls-3{font-size:162.97px;font-family:MavenProMedium, Maven Pro;letter-spacing:0.04em;}.cls-4{fill:#124aa1;}.cls-5{font-size:23px;fill:#f29103;font-family:MavenProRegular, Maven Pro;letter-spacing:-0.06em;}.cls-6{letter-spacing:-0.07em;}.cls-7{letter-spacing:-0.06em;}.cls-8{letter-spacing:-0.06em;}.cls-9{letter-spacing:-0.04em;}.cls-10{letter-spacing:-0.05em;}.cls-11{letter-spacing:-0.05em;}.cls-12{letter-spacing:-0.07em;}.cls-13{letter-spacing:-0.05em;}.cls-14{letter-spacing:-0.07em;}.cls-15{letter-spacing:-0.06em;}</style></defs><rect class="cls-1" width="435.62" height="235.82" rx="117.91"/><path class="cls-2" d="M121.36,232a109.5,109.5,0,0,1,0-219H321.15a109.5,109.5,0,0,1,0,219Z" transform="translate(-3.45 -4.62)"/><text class="cls-3" transform="translate(35.84 153.85) scale(0.98 1)">e</text><path class="cls-4" d="M131.2,158.47V49.91h19.17V140h51.2v18.43Z" transform="translate(-3.45 -4.62)"/><path class="cls-4" d="M209.29,66.2V48.32h19.64V66.2Zm.31,92.27V77.25h19.17v81.22Z" transform="translate(-3.45 -4.62)"/><path class="cls-4" d="M245.8,196.74V103.48A26,26,0,0,1,254,84.21q8.22-8.07,25.29-8.07a49.43,49.43,0,0,1,7.87.63,32.94,32.94,0,0,1,9.24,3.34,30.33,30.33,0,0,1,9.11,7q3.81,4.29,6.6,12.59a60.3,60.3,0,0,1,2.79,19.2q0,19.93-9.54,30.63t-27.32,10.69A59.34,59.34,0,0,1,265,158.78v38ZM265,144a84.39,84.39,0,0,0,11.77,1q9.27,0,14.14-5.52t4.87-19.51q0-14.31-3.66-20.66t-12.78-6.36q-14.34,0-14.34,8.74Z" transform="translate(-3.45 -4.62)"/><path class="cls-4" d="M320.65,131.93a28.51,28.51,0,0,1,.47-5.05,25,25,0,0,1,2.47-6.47,22.24,22.24,0,0,1,5.45-6.84q3.45-2.94,10.19-5a53.72,53.72,0,0,1,15.91-2.1,95.44,95.44,0,0,1,14,1.11q0-15.5-16.87-15.5-13.45,0-23.4,4.14V80.11A69.45,69.45,0,0,1,353.35,76q17,0,26.08,8.86t9,25.63V132.4a26.07,26.07,0,0,1-8.22,19.28Q372,159.75,355,159.74q-17.64,0-26-8.1A26.44,26.44,0,0,1,320.65,131.93Zm19.17-2.46q0,13,15,13H355q14.31,0,14.31-12.32V119.93a92.59,92.59,0,0,0-11.43-1Q339.91,118.9,339.82,129.47Z" transform="translate(-3.45 -4.62)"/><text class="cls-5" transform="matrix(0.96, 0, -0.19, 0.98, 63.57, 188.14)">S<tspan class="cls-6" x="11.51" y="0">i</tspan><tspan class="cls-7" x="16.04" y="0">m</tspan><tspan class="cls-8" x="35.03" y="0">pl</tspan><tspan class="cls-9" x="51.35" y="0">y </tspan><tspan class="cls-10" x="68.83" y="0">C</tspan><tspan class="cls-11" x="82.09" y="0">o</tspan><tspan class="cls-12" x="93.84" y="0">n</tspan><tspan class="cls-7" x="105.63" y="0">v</tspan><tspan class="cls-13" x="116.07" y="0">e</tspan><tspan class="cls-14" x="127.62" y="0">n</tspan><tspan class="cls-8" x="139.37" y="0">i</tspan><tspan class="cls-13" x="143.99" y="0">e</tspan><tspan class="cls-15" x="155.54" y="0">n</tspan><tspan class="cls-9" x="167.43" y="0">t</tspan></text></svg>